<?xml version="1.0" encoding="utf-8"?>
<!-- Generator: Adobe Illustrator 22.0.1, SVG Export Plug-In . SVG Version: 6.00 Build 0)  -->
<svg version="1.1" id="Camada_1" xmlns="http://www.w3.org/2000/svg" xmlns:xlink="http://www.w3.org/1999/xlink" x="0px" y="0px"
	 viewBox="0 0 512 512" style="enable-background:new 0 0 512 512;" xml:space="preserve">
<g>
	<g>
		<path d="M80.1,405.6c3.5,2.4,17,9.1,28.4-5.3l77.2-112.8l81.7,78.8c4.3,4.1,10.2,6.3,16.2,5.6c5.9-0.6,11.3-3.7,14.8-8.6
			L433.9,169l4.9,65c1.2,16.5,16.7,19.2,21.9,18.8c11.2-0.9,19.7-10.6,18.8-21.9l-8.6-114.3c-0.8-11.2-10.6-19.7-21.9-18.8
			l-114.3,8.6c-11.2,0.8-19.7,10.6-18.8,21.9c0.8,11.2,10.5,19.6,21.9,18.8l65-4.9l-124.2,178l-81.9-79c-4.3-4.2-10.3-6.3-16.2-5.6
			c-6,0.6-11.4,3.8-14.8,8.8L74.8,377.2C68.4,386.5,70.8,399.2,80.1,405.6L80.1,405.6z"/>
	</g>
</g>
</svg>
